HIERARCHY
ROOT Hips
{
	OFFSET 0.00000 0.00000 0.00000
	CHANNELS 6 Xposition Yposition Zposition Zrotation Yrotation Xrotation 
	JOINT LHipJoint
	{
		OFFSET 0 0 0
		CHANNELS 3 Zrotation Yrotation Xrotation
		JOINT LeftUpLeg
		{
			OFFSET 1.92105 -1.55469 0.57908
			CHANNELS 3 Zrotation Yrotation Xrotation
			JOINT LeftLeg
			{
				OFFSET 2.22936 -6.12512 0.00000
				CHANNELS 3 Zrotation Yrotation Xrotation
				JOINT LeftFoot
				{
					OFFSET 2.39380 -6.57693 0.00000
					CHANNELS 3 Zrotation Yrotation Xrotation
					JOINT LeftToeBase
					{
						OFFSET 0.18279 -0.50221 1.84518
						CHANNELS 3 Zrotation Yrotation Xrotation
						End Site
						{
							OFFSET 0.00000 -0.00000 0.96438
						}
					}
				}
			}
		}
	}
	JOINT RHipJoint
	{
		OFFSET 0 0 0
		CHANNELS 3 Zrotation Yrotation Xrotation
		JOINT RightUpLeg
		{
			OFFSET -1.89358 -1.55469 0.57908
			CHANNELS 3 Zrotation Yrotation Xrotation
			JOINT RightLeg
			{
				OFFSET -2.33387 -6.41225 0.00000
				CHANNELS 3 Zrotation Yrotation Xrotation
				JOINT RightFoot
				{
					OFFSET -2.38966 -6.56553 0.00000
					CHANNELS 3 Zrotation Yrotation Xrotation
					JOINT RightToeBase
					{
						OFFSET -0.18298 -0.50273 1.96046
						CHANNELS 3 Zrotation Yrotation Xrotation
						End Site
						{
							OFFSET -0.00000 -0.00000 1.01970
						}
					}
				}
			}
		}
	}
	JOINT LowerBack
	{
		OFFSET 0 0 0
		CHANNELS 3 Zrotation Yrotation Xrotation
		JOINT Spine
		{
			OFFSET 0.03719 2.01033 -0.18318
			CHANNELS 3 Zrotation Yrotation Xrotation
			JOINT Spine1
			{
				OFFSET 0.00561 1.99379 0.09854
				CHANNELS 3 Zrotation Yrotation Xrotation
				JOINT Neck
				{
					OFFSET 0 0 0
					CHANNELS 3 Zrotation Yrotation Xrotation
					JOINT Neck1
					{
						OFFSET -0.16458 1.70299 0.07694
						CHANNELS 3 Zrotation Yrotation Xrotation
						JOINT Head
						{
							OFFSET 0.23603 1.70483 -0.17696
							CHANNELS 3 Zrotation Yrotation Xrotation
							End Site
							{
								OFFSET 0.09691 1.73862 -0.07054
							}
						}
					}
				}
				JOINT LeftShoulder
				{
					OFFSET 0 0 0
					CHANNELS 3 Zrotation Yrotation Xrotation
					JOINT LeftArm
					{
						OFFSET 2.95817 1.35820 -0.02124
						CHANNELS 3 Zrotation Yrotation Xrotation
						JOINT LeftForeArm
						{
							OFFSET 4.84834 -0.00000 0.00000
							CHANNELS 3 Zrotation Yrotation Xrotation
							JOINT LeftHand
							{
								OFFSET 2.99713 -0.00000 0.00000
								CHANNELS 3 Zrotation Yrotation Xrotation
								JOINT LeftFingerBase
								{
									OFFSET 0 0 0
									CHANNELS 3 Zrotation Yrotation Xrotation
									JOINT LeftHandIndex1
									{
										OFFSET 0.69399 -0.00000 0.00000
										CHANNELS 3 Zrotation Yrotation Xrotation
										End Site
										{
											OFFSET 0.55951 -0.00000 0.00000
										}
									}
								}
								JOINT LThumb
								{
									OFFSET 0 0 0
									CHANNELS 3 Zrotation Yrotation Xrotation
									End Site
									{
										OFFSET 0.56805 -0.00000 0.56805
									}
								}
							}
						}
					}
				}
				JOINT RightShoulder
				{
					OFFSET 0 0 0
					CHANNELS 3 Zrotation Yrotation Xrotation
					JOINT RightArm
					{
						OFFSET -3.02016 1.39593 0.16199
						CHANNELS 3 Zrotation Yrotation Xrotation
						JOINT RightForeArm
						{
							OFFSET -4.93457 -0.00000 0.00000
							CHANNELS 3 Zrotation Yrotation Xrotation
							JOINT RightHand
							{
								OFFSET -3.34430 -0.00000 0.00000
								CHANNELS 3 Zrotation Yrotation Xrotation
								JOINT RightFingerBase
								{
									OFFSET 0 0 0
									CHANNELS 3 Zrotation Yrotation Xrotation
									JOINT RightHandIndex1
									{
										OFFSET -0.67736 -0.00000 0.00000
										CHANNELS 3 Zrotation Yrotation Xrotation
										End Site
										{
											OFFSET -0.54611 -0.00000 0.00000
										}
									}
								}
								JOINT RThumb
								{
									OFFSET 0 0 0
									CHANNELS 3 Zrotation Yrotation Xrotation
									End Site
									{
										OFFSET -0.55445 -0.00000 0.55445
									}
								}
							}
						}
					}
				}
			}
		}
	}
}
MOTION
Frames: 13
Frame Time: .0083333
4.8863 19.7959 0.8219 -155.3220 -87.6635 189.4340 0.0000 0.0000 0.0000 -25.4104 -8.3264 -8.6176 3.6588 11.6920 34.6508 0.3876 12.1988 13.1025 0.0750 1.7668 4.8616 0.0000 0.0000 0.0000 19.2850 2.8965 -15.8279 -9.9978 -17.4086 59.4809 0.0560 -5.9554 2.3321 -4.0017 -12.1627 36.3098 2.4770 -0.1095 3.3509 -0.6034 -0.0534 -3.0698 -2.0099 -0.1369 -5.0604 -11.6781 1.9888 5.1313 9.6060 -1.9009 34.5647 5.3706 -2.1568 10.3314 0.0000 0.0000 0.0000 67.4202 -43.9577 -102.0317 37.8553 -46.7466 -16.8601 -0.0000 -0.0000 33.1435 19.2186 26.9510 8.9783 -7.1250 0.0000 -0.0000 -12.2353 57.8598 -3.8895 0.0000 0.0000 0.0000 -62.5076 44.4224 -101.5644 -33.6317 43.8100 -13.8575 0.0000 0.0000 11.6768 -29.6271 34.0159 -17.6483 7.1250 -0.0000 -0.0000 1.6372 7.8330 1.8458
5.0441 19.9318 0.8309 -177.3240 -87.4901 211.8410 0.0000 0.0000 0.0000 -26.2644 -9.1492 -8.4726 3.3271 11.2066 32.9800 0.4800 12.0099 13.9555 1.0220 6.4312 18.0407 0.0000 0.0000 0.0000 18.4288 3.2430 -15.9255 -9.8061 -17.2994 58.8385 0.0893 -6.4832 1.6240 -4.5799 -12.8944 38.9746 1.3802 -0.1886 3.6987 -0.8002 -0.2255 -2.9942 -1.5842 -0.1864 -5.1825 -11.7469 2.1782 5.8624 9.7158 -1.6097 33.5776 5.3970 -1.9956 9.7746 0.0000 0.0000 0.0000 67.7362 -44.0431 -103.1044 37.8384 -46.7358 -16.8478 -0.0000 -0.0000 32.6473 18.5153 24.9587 8.0434 -7.1250 0.0000 -0.0000 -11.9513 55.7228 -3.1773 0.0000 0.0000 0.0000 -63.2853 44.5003 -102.8217 -33.2090 43.4900 -13.5657 0.0000 0.0000 12.5847 -29.9235 34.4162 -18.0204 7.1250 -0.0000 -0.0000 1.5629 8.3343 1.7735
5.1872 20.0706 0.8444 -176.2490 -87.5060 211.0770 0.0000 0.0000 0.0000 -26.1144 -10.0132 -8.1438 2.9933 10.6842 31.2221 0.3681 11.4594 12.5870 0.1586 2.5661 7.0730 0.0000 0.0000 0.0000 18.7302 3.4566 -16.1588 -9.6194 -17.1902 58.2086 0.0463 -6.4888 3.2256 -1.2295 -7.0323 19.8111 1.2670 -0.2148 4.1537 -0.7075 -0.2546 -2.8562 -1.4217 -0.1932 -5.2976 -11.8349 2.1302 5.8365 9.8617 -1.7003 33.5085 5.4614 -2.0275 9.7630 -0.0000 -0.0000 0.0000 67.8039 -44.1582 -103.9237 38.0011 -46.8400 -16.9664 -0.0000 -0.0000 32.4659 18.1100 23.2201 7.3473 -7.1250 0.0000 -0.0000 -11.5731 53.9010 -2.5588 -0.0000 -0.0000 0.0000 -63.3371 44.4292 -103.0398 -33.1538 43.4479 -13.5277 0.0000 0.0000 12.9939 -30.3814 34.9281 -18.5550 7.1250 -0.0000 -0.0000 1.4294 8.9997 1.6359
5.3498 20.1930 0.8575 -172.8470 -87.4360 207.6330 0.0000 0.0000 0.0000 -25.9600 -10.7084 -7.6949 2.7296 10.2439 29.7704 0.1795 10.1488 9.7584 3.4602 -11.4052 -33.6590 0.0000 0.0000 0.0000 19.0068 4.0593 -15.6654 -9.3866 -17.0502 57.4177 0.0594 -7.1218 3.4386 -1.2704 -7.1440 20.1425 1.3376 -0.2059 5.0371 -0.6875 -0.2212 -2.5925 -1.4429 -0.1763 -5.5252 -11.2057 2.0256 6.0666 9.1093 -1.5839 32.8769 5.0498 -1.9335 9.4729 -0.0000 -0.0000 0.0000 67.2004 -44.5056 -101.5927 38.4115 -47.1001 -17.2664 -0.0000 -0.0000 36.1112 23.1007 30.4501 12.1980 -7.1250 0.0000 -0.0000 -10.0086 62.2899 -4.2295 -0.0000 -0.0000 0.0000 -63.1344 44.3573 -102.8566 -33.4208 43.6510 -13.7117 0.0000 0.0000 12.8915 -30.3478 35.0156 -18.5694 7.1250 -0.0000 -0.0000 1.4672 9.0805 1.6808
5.5178 20.3120 0.8690 -177.2260 -86.9460 210.9300 0.0000 0.0000 0.0000 -26.5500 -10.9171 -6.4619 2.5579 9.9425 28.7907 0.2221 10.2480 10.3598 0.2992 -3.5171 -9.7218 0.0000 0.0000 0.0000 18.8639 4.1687 -14.4165 -9.0815 -16.8599 56.3717 0.0576 -7.7948 4.1193 -1.4043 -7.4959 21.1931 0.7818 -0.1250 7.1145 -0.8498 -0.1457 -2.0338 -1.3081 -0.1197 -6.1212 -12.2546 2.4525 4.8739 10.5915 -1.2708 33.6825 5.8523 -1.7792 9.9329 -0.0000 -0.0000 0.0000 67.0849 -44.5705 -101.0553 39.0839 -47.5177 -17.7606 -0.0000 -0.0000 36.6887 24.2993 31.6286 13.3208 -7.1250 0.0000 -0.0000 -9.3876 63.7931 -4.2958 -0.0000 -0.0000 0.0000 -63.5898 44.2151 -103.6308 -33.2686 43.5354 -13.6067 0.0000 0.0000 13.1810 -30.0412 35.0751 -18.3830 7.1250 -0.0000 -0.0000 1.6446 9.0523 1.8836
5.6423 20.4527 0.8902 -164.0710 -86.9619 197.7520 0.0000 0.0000 0.0000 -25.8398 -11.8666 -6.3006 2.4314 9.7122 28.0496 0.3192 10.5856 11.6837 0.9160 6.0981 17.0694 0.0000 0.0000 0.0000 19.6587 4.5760 -14.1605 -8.7372 -16.6356 55.1767 0.0596 -8.5030 4.7005 -1.7343 -8.2892 23.5959 1.4114 -0.0888 8.0686 -0.8266 -0.0234 -1.7258 -1.6557 -0.0818 -6.3393 -11.3035 2.2101 4.5338 9.9327 -1.3794 33.5085 5.4216 -1.7454 9.9474 0.0000 0.0000 0.0000 67.3213 -44.2362 -101.3247 39.6054 -47.8344 -18.1462 -0.0000 -0.0000 35.6589 23.8162 30.3303 12.5655 -7.1250 0.0000 -0.0000 -9.0981 62.3540 -3.8549 0.0000 0.0000 0.0000 -63.9328 44.0139 -104.8591 -32.9201 43.2685 -13.3673 0.0000 0.0000 14.1935 -30.2188 35.5679 -18.7161 7.1250 -0.0000 -0.0000 1.6607 9.6144 1.9154
5.7439 20.5680 0.8566 -146.6330 -87.5502 181.4760 0.0000 0.0000 0.0000 -24.2290 -13.3695 -7.4639 2.3528 9.5653 27.5802 0.0245 9.3703 6.9967 2.4484 -9.7435 -28.1500 0.0000 0.0000 0.0000 21.0908 5.5086 -14.1843 -8.2894 -16.3280 53.5984 0.1267 -9.4922 4.1079 -1.3549 -7.3684 20.8114 1.6443 -0.2266 7.2181 -0.5964 -0.1819 -1.7225 -1.5241 -0.1590 -5.8566 -9.2622 1.4768 5.8304 7.9195 -1.8901 31.9638 4.2267 -1.8872 9.2018 0.0000 0.0000 0.0000 67.9290 -43.9000 -102.2736 39.7250 -47.9061 -18.2349 -0.0000 -0.0000 34.0169 22.4059 27.7222 10.8570 -7.1250 0.0000 -0.0000 -9.1909 59.3590 -3.2403 0.0000 0.0000 0.0000 -63.3870 43.9911 -104.8745 -33.1260 43.4267 -13.5086 0.0000 0.0000 14.2468 -30.5734 36.1523 -19.2143 7.1250 -0.0000 -0.0000 1.6076 10.3236 1.8703
5.8522 20.6915 0.8566 -149.2340 -87.5939 184.7970 0.0000 0.0000 0.0000 -23.9764 -14.6636 -8.3688 2.3090 9.4820 27.3149 -0.0387 9.2854 5.7854 2.4529 -9.7517 -28.1765 0.0000 0.0000 0.0000 21.2953 5.6597 -14.8333 -7.8975 -16.0433 52.1925 0.1053 -9.6594 4.7571 -1.1898 -6.9220 19.4844 1.2470 -0.2280 7.1527 -0.5568 -0.2199 -1.8357 -1.2547 -0.1644 -5.9373 -10.4912 1.9153 6.0216 9.1326 -1.6074 32.0764 4.9046 -1.8074 9.1753 0.0000 0.0000 0.0000 68.6227 -44.0946 -103.7294 39.5918 -47.8262 -18.1361 -0.0000 -0.0000 32.9384 20.9787 25.0905 9.2353 -7.1250 0.0000 -0.0000 -9.4411 56.3628 -2.6471 0.0000 0.0000 0.0000 -62.7630 44.2815 -104.0936 -33.6862 43.8509 -13.8952 0.0000 0.0000 13.6466 -31.1397 36.8311 -19.9096 7.1250 -0.0000 -0.0000 1.4717 11.1950 1.7300
5.9726 20.8015 0.8535 -132.2330 -87.5639 167.4980 0.0000 0.0000 0.0000 -23.0744 -15.0777 -8.4163 2.2660 9.3994 27.0529 -0.0584 8.7504 4.9434 2.5451 -9.9195 -28.7164 0.0000 0.0000 0.0000 22.3851 6.3180 -13.9759 -7.5177 -15.7528 50.8062 0.1240 -10.0880 4.7788 -1.1135 -6.7039 18.8410 1.6553 -0.2849 8.1753 -0.1712 -0.2165 -1.7436 -1.0809 -0.1730 -6.4247 -10.2699 1.6899 7.4262 8.3396 -1.7930 31.1216 4.5376 -1.9383 8.6141 0.0000 0.0000 0.0000 68.6542 -44.3802 -104.2742 39.4347 -47.7314 -18.0198 -0.0000 -0.0000 32.5305 20.7214 23.7603 8.6663 -7.1250 0.0000 -0.0000 -9.1333 54.9526 -2.2463 0.0000 0.0000 0.0000 -62.8932 44.6391 -104.0591 -33.7843 43.9243 -13.9632 0.0000 0.0000 13.9316 -32.3745 37.3977 -21.0593 7.1250 -0.0000 -0.0000 0.9711 12.1660 1.1541
6.0896 20.9043 0.8545 -116.6870 -87.4181 151.5120 0.0000 0.0000 0.0000 -22.2735 -15.5128 -8.2085 2.1894 9.2499 26.5803 -0.0655 8.2442 4.3311 2.3610 -9.5807 -27.6292 0.0000 0.0000 0.0000 23.5531 6.7613 -13.3167 -7.2572 -15.5447 49.8404 0.1384 -10.2206 4.6096 -1.0612 -6.5496 18.3876 2.2198 -0.3930 9.3064 0.0180 -0.2634 -1.5462 -1.1914 -0.2170 -6.8666 -11.4299 2.1249 7.4220 9.5467 -1.5332 31.4313 5.1996 -1.8668 8.6901 0.0000 0.0000 0.0000 68.7034 -44.4364 -104.1345 39.0562 -47.5007 -17.7402 -0.0000 -0.0000 32.9615 21.6037 23.2838 8.8966 -7.1250 0.0000 -0.0000 -8.0293 54.6377 -1.9103 0.0000 0.0000 0.0000 -62.8913 44.7493 -104.1517 -33.7118 43.8701 -13.9129 0.0000 0.0000 14.2462 -32.4398 36.5794 -20.7453 7.1250 -0.0000 -0.0000 0.7310 11.3430 0.8605
6.1912 21.0195 0.8613 -137.9780 -87.4787 173.7960 0.0000 0.0000 0.0000 -22.8333 -16.7334 -9.6652 2.1676 9.2068 26.4443 -0.0865 8.2580 3.8182 2.4066 -9.6661 -27.9021 0.0000 0.0000 0.0000 22.5900 7.9293 -14.4989 -7.0475 -15.3717 49.0536 0.1016 -9.8639 5.0288 -1.3829 -7.4411 21.0289 1.2491 -0.2640 9.1272 -0.3321 -0.2293 -1.7656 -1.0178 -0.1710 -6.9919 -14.7949 3.4247 5.5797 14.2114 -0.9046 33.5154 7.7103 -1.6278 9.6015 -0.0000 -0.0000 0.0000 67.5552 -44.6247 -101.7764 40.9413 -48.6178 -19.1425 -0.0000 -0.0000 31.9131 21.9553 24.0100 9.3151 -7.1250 0.0000 -0.0000 -7.9510 55.4571 -2.0503 -0.0000 -0.0000 0.0000 -62.5671 44.8245 -103.8979 -33.8980 44.0090 -14.0422 0.0000 0.0000 14.3779 -30.9568 34.4547 -18.7451 7.1250 -0.0000 -0.0000 1.0141 8.6777 1.1557
6.2851 21.1463 0.8828 -153.0450 -86.3548 192.2840 0.0000 0.0000 0.0000 -22.4063 -18.6085 -14.1401 2.2034 9.2775 26.6672 -0.1364 8.8386 3.1212 2.4194 -9.6899 -27.9781 0.0000 0.0000 0.0000 21.0433 10.6607 -18.4026 -6.8447 -15.1997 48.2844 0.0388 -9.4452 5.9097 -1.5071 -7.7535 21.9679 0.3525 0.1480 6.6262 -0.4653 0.1973 -2.5879 -0.7073 0.0700 -6.4183 -16.3170 3.8297 5.0372 15.7116 -0.6075 33.7655 8.6271 -1.5366 9.6948 -0.0000 -0.0000 0.0000 69.0683 -44.6928 -104.4764 39.0427 -47.4924 -17.7302 -0.0000 -0.0000 33.7791 23.3063 23.6264 9.7956 -7.1250 0.0000 -0.0000 -6.3828 55.3350 -1.6242 -0.0000 -0.0000 0.0000 -62.9811 44.7391 -104.0952 -33.9583 44.0538 -14.0840 0.0000 0.0000 14.9117 -30.5779 33.6798 -18.1425 7.1250 -0.0000 -0.0000 1.0480 7.7562 1.1800
6.3895 21.2518 0.8873 -139.3110 -86.0053 179.1780 0.0000 0.0000 0.0000 -20.8086 -19.3196 -15.7026 2.2436 9.3560 26.9155 -0.1617 8.7491 2.2418 1.9526 -8.7666 -25.0679 0.0000 0.0000 0.0000 22.1079 12.2226 -18.9475 -6.6019 -14.9873 47.3522 0.0495 -9.3850 5.6550 -1.5860 -7.9444 22.5454 0.9677 0.2493 6.9742 0.0318 0.4246 -2.7264 -0.5642 0.1653 -6.7614 -16.6878 3.7603 5.7655 15.0780 -0.5072 32.9535 8.3762 -1.5638 9.2630 0.0000 0.0000 0.0000 68.3927 -44.5424 -103.7850 39.1438 -47.5544 -17.8048 -0.0000 -0.0000 33.5751 24.1914 24.6913 10.6285 -7.1250 0.0000 -0.0000 -5.8475 56.6337 -1.6716 0.0000 0.0000 0.0000 -63.4144 44.7929 -104.3369 -33.8588 43.9798 -14.0149 0.0000 0.0000 15.3177 -31.7436 35.0083 -19.5410 7.1250 -0.0000 -0.0000 0.7192 9.4934 0.8280
